<svg id="Layer_1" data-name="Layer 1" xmlns="http://www.w3.org/2000/svg" viewBox="0 0 1791.56 1127.56"><defs><style>.cls-1,.cls-3{fill:#c42127;}.cls-2,.cls-3{fill-rule:evenodd;}</style></defs><title>شعار سريع 2</title><path d="M413.31,511.72c6.45,4,9.58,8.81,9.58,14.27,0,7.58-6.88,15.32-16.87,15.32-5.63,0-9.37-1.76-13.54-4.57a29.45,29.45,0,0,0-16.86-5.29c-9,0-14.37,2.29-14.37,10.39,0,9,12.91,11.81,26.44,17.27,26,10.56,44.57,20.6,44.57,43.15,0,29.41-25.83,47-58.73,47a83.15,83.15,0,0,1-40-10.22c-6.45-3.52-9.78-8.28-9.78-14.27,0-9.33,5.62-14.09,16.66-14.09a29,29,0,0,1,12.7,3,46.73,46.73,0,0,0,20.4,5.28c11.66,0,22.08-5.28,22.08-15.67,0-6.52-5.63-10.22-23.12-17.09-21.65-8.63-47.47-19-47.47-43.68,0-20.61,20-41.39,50.8-41.39A70.72,70.72,0,0,1,413.31,511.72Z"/><path d="M542.4,505.21c36,0,56,20.6,56,42.45,0,13.73-7.7,27.83-25.19,37.34L594,623.75a20.26,20.26,0,0,1,2.92,9.33c0,8.28-5.42,14.1-16.45,14.1-6.25,0-11.87-1.59-15.62-8.11l-27.28-46.5h-25V631c0,10.74-5.62,16-17.07,16-11.66,0-17.28-5.29-17.28-16V520.35c0-10.56,7.08-15.14,21.23-15.14Zm-29.78,58.3h31.24c12.08,0,19.36-8.1,19.36-15.85,0-6.7-6-13.39-19.36-13.39H512.62Z"/><path d="M727.92,505.38c11.87,0,17.28,4.58,17.28,14.62,0,9.69-5.83,14.62-17.28,14.62H683.57v24.66h34.77c11.25,0,17.08,4.76,17.08,14.62,0,9.69-5.83,14.44-17.08,14.44H683.57v29.42h45.81c12.49,0,18.74,4.93,18.74,14.62S741.87,647,729.38,647h-62c-16,0-18.12-3.35-18.12-16V521.23c0-10.56,5.83-15.85,18.12-15.85Z"/><path d="M888.66,544.31c0,10.92-5.62,21.49-18.94,28.53,17.07,7.93,25,20.79,25,33.82,0,21.14-20,42.45-52.47,42.45-19,0-34.36-8.63-42.27-18.14a25.74,25.74,0,0,1-6.25-16.21c0-9.51,7.5-14.62,15.83-14.62,6.24,0,13.11,3.35,16.24,9.16,3.54,7.23,9.37,10.57,16.24,10.57,9,0,18.12-5.11,18.12-15,0-7.22-4.58-16.56-14.37-17.61h-7.08c-12.5,0-18.33-3.7-18.33-12.51,0-9,6.25-12,18.33-12a28.35,28.35,0,0,0,6.25-.35c5.62-1.58,9.57-9.86,9.57-15.67,0-7.23-5-12-13.53-12-12.91,0-13.74,7.4-14.16,9.16,0,1.93-2.91,9.69-13.12,9.69-12.7,0-17.91-4.41-17.91-13.22,0-17.26,19.16-34.17,45.81-34.17C870.34,506.26,888.66,525.46,888.66,544.31Z"/><path class="cls-1" d="M305.19,952.9l-23,4.24L264.17,971l-11.82,19.4a96.52,96.52,0,0,0-3.68,11.7,59.31,59.31,0,0,0-1.45,13.93,44,44,0,0,0,1.45,11.26,109.84,109.84,0,0,0,3.68,11.26,54.59,54.59,0,0,0,5.35,11.15,47.51,47.51,0,0,0,6.47,8.47l3.12,3.12H184.8a91.62,91.62,0,0,1-7.36-24.08,171.48,171.48,0,0,1-2-27.2,141.27,141.27,0,0,1,2.34-26.08,125.06,125.06,0,0,1,8.58-26.76q5.81-10,12.16-19.5a115.82,115.82,0,0,1,14.38-17.51q15.6-18.51,41-27.64A126.37,126.37,0,0,1,277.32,886a159.78,159.78,0,0,1,27.87-2.23L294,851.47c-1-5.2-1.9-10.49-2.56-15.83a132.71,132.71,0,0,1-1-16.5A128,128,0,0,1,293,793.39a163.74,163.74,0,0,1,7.69-26,133.79,133.79,0,0,1,12.6-21.74,239.32,239.32,0,0,1,15.94-20,191.37,191.37,0,0,1,20.39-15.38,167.39,167.39,0,0,1,23.75-12.71,211.25,211.25,0,0,1,25.64-6.8,131.53,131.53,0,0,1,25.64-2.56,149.92,149.92,0,0,1,27.86,2.56,192,192,0,0,1,26.09,6.8,162.9,162.9,0,0,1,24.3,12.93,120,120,0,0,1,20.29,16.72l5.58,7.81-43.48,58-8.69-11.37a44.36,44.36,0,0,0-9.26-10.59,52.23,52.23,0,0,0-12.81-7.91,93,93,0,0,0-15.5-4.13,91.44,91.44,0,0,0-15.94-1.44l-22.07,5.57-18.95,12.26L370.29,796l-4,23.19V829l2.67,10.7,4.46,10.25,7.13,11.82L405.3,877.1l33.21,6.69H764.43c-3.57,0-221.06,1-223.14,3s-3.12,5.1-3.12,9.25v45q0,5.79,2.45,8.25t8.25,3.56ZM880.13,695h69.79V952.9H538.17c-5.2,0-8.89-1-11-2.89s-3.23-4.68-3.23-8.25V894.94c0-3.57,1.08-6.31,3.23-8.25s5.84-2.9,11-2.9h342ZM807,989.25a39.15,39.15,0,0,1,15.39,3,38.72,38.72,0,0,1,12.48,8.36,40.92,40.92,0,0,1,8.58,12.71,45.23,45.23,0,0,1,3.68,16.05,40.39,40.39,0,0,1-11.7,29.76,43.46,43.46,0,0,1-13.27,9,37,37,0,0,1-16,3.13,38.89,38.89,0,0,1-29-12.94,42.38,42.38,0,0,1-8.25-14.16,40.12,40.12,0,0,1-2-17.5,45.4,45.4,0,0,1,4.23-14.71,40.15,40.15,0,0,1,8.7-11.93,40.91,40.91,0,0,1,12.26-7.91A38.12,38.12,0,0,1,807,989.25Zm94.31.44a39,39,0,0,1,27.87,11.38,41.34,41.34,0,0,1,8.58,12.7,45.55,45.55,0,0,1,3.68,16.06,40.39,40.39,0,0,1-11.71,29.76,43.18,43.18,0,0,1-13.26,9,36.86,36.86,0,0,1-16.06,3.12q-13.36-.9-22.07-7.36a39.8,39.8,0,0,1-12.82-15.49,43.07,43.07,0,0,1-3.79-19.51,44.37,44.37,0,0,1,4.91-19.28,38.88,38.88,0,0,1,13.27-14.61Q888.61,989.69,901.32,989.69ZM1058,924.15l6.68-24.75q3.13-13.81,5.13-27a173.85,173.85,0,0,0,2-26.31,173.44,173.44,0,0,0,.33-25.63q-.77-12.5-1.89-25.2l-11.15-50.16a134.9,134.9,0,0,0-7.91-24.19,240.58,240.58,0,0,0-11.7-23.52H1118a270,270,0,0,1,15.39,44.48,419.11,419.11,0,0,1,8.7,46.26,303,303,0,0,1,2.55,47.26,391,391,0,0,1-4.12,48.16h161.85c-4.9,0-128.22,1-130.53,3.12a10.62,10.62,0,0,0-3.45,8.25v46.15c0,3.57,1.15,6.24,3.45,8s125.63,3,130.53,3.78H1125.09l-14,32.34-17.39,31.43L1071.13,1049l-28.31,32.77-58-45.7,22.52-26.76,16.95-22.52L1038.81,967,1050,946.89l8.25-22.52Zm638.51,3.12A89,89,0,0,1,1680,941a147.86,147.86,0,0,1-19,10.37,68.82,68.82,0,0,1-20.84,7.47,126.09,126.09,0,0,1-23.31,2.11,106.43,106.43,0,0,1-19.5-1.89,93.55,93.55,0,0,1-20-6.14,120.7,120.7,0,0,1-17.27-9.69q-7.7-5.25-15.5-11.48A136.25,136.25,0,0,1,1529,943.21a153.84,153.84,0,0,1-18.17,9.69,90.68,90.68,0,0,1-19.29,6.14,105.13,105.13,0,0,1-20.17,1.89,107.27,107.27,0,0,1-19-1.67,104.69,104.69,0,0,1-17.83-4.79q-8.47-3.57-16-7.58a158.55,158.55,0,0,1-15.38-9.37,49.06,49.06,0,0,1-7.25,5.91,61,61,0,0,1-9.7,5.24l-22.52,4.23H1168.56q-6.24,0-9.47-3a10.88,10.88,0,0,1-3.24-8.36v-45q0-12.93,12.71-12.93h150.93a46.78,46.78,0,0,0,10.48-1.12,19.64,19.64,0,0,0,8-3.56l12.94-11.15,8.69-16.94,2.46-20.07V696.52h69.33V850.8a21,21,0,0,0,1,6.35c.66,2.15,1.37,4.28,2.11,6.35l8.7,12.94q9.58,8.91,20.73,10.7a38.39,38.39,0,0,0,21-2.23,41.28,41.28,0,0,0,16.95-13.15q7.13-9.15,8.91-22.52V696.52h69.79V849.24q.43,13.38,6.23,22a35.91,35.91,0,0,0,14,12.59,37.33,37.33,0,0,0,18,3.68,40.87,40.87,0,0,0,17.94-4.68,38.93,38.93,0,0,0,14-12.82q5.81-8.46,6.24-20.73V696.52h69.12V854.81a92.75,92.75,0,0,1-2,19.29,199.4,199.4,0,0,1-5.13,19.28,62.31,62.31,0,0,1-4,9.36,86.45,86.45,0,0,1-5.46,9,100.49,100.49,0,0,1-6.35,8.24Q1699.85,923.92,1696.49,927.27Z"/><path class="cls-2" d="M516.09,47C293.67,41.24,112,131,50.84,301.45,13.3,406.07,26.85,525.33,80.37,642h41C67.84,525.33,54.29,406.07,91.84,301.45,149.2,141.59,312.53,52.69,516.09,47Z"/><path class="cls-3" d="M395.57,100.77C274.48,127.85,180.22,193,135,292.5l101.56,50.38c35-82.63,105.55-140,197.3-169.6l64.58,39c-34.17-37.58-68.23-74.35-102.82-111.52m-267,206.92c-.76,1.95-1.52,3.91-2.24,5.88-36.73,99.74-21.49,215.22,34,328.45H254c-40.75-91.82-52.79-184.64-28.87-267l59.39,9.07C232.22,359.13,180.45,333.45,128.53,307.69ZM932.08,184.42A1064.22,1064.22,0,0,0,781.74,125.7l4.18,51a924.27,924.27,0,0,1,165,62.54q19.37,9.49,38.08,19.71a936.88,936.88,0,0,1,93.55,12.69A1110.42,1110.42,0,0,0,932.08,184.42Zm-167.3-63.71c-126-35.86-247.09-43.1-350.3-23.79l60.68,65.18c81-17.87,175.16-16.46,274.29,5.59l23,44.35Z"/><path class="cls-2" d="M914.65,580.57c17.18-35.34,47.24-57.11,94.83-59.41,41.9,2.31,86.34,31.12,118.52,135-.34-3-.72-5.92-1.15-8.77-21.35-102.24-61.68-144.68-115-146.21-50.11,2.42-81,33.86-97.23,79.41m549.94-25.36c-109.33-4.1-205.19-10.7-277-20.83,10.69,15.68,23.36,31,41.51,45.48,13.25,9.52,27.75,15.22,43.12,18.31,70.79,9,140,14.38,210.39,18.56-10.91-15-19.83-25.56-30.74-40.51C1448.89,565.17,1454.74,559.06,1464.59,555.21ZM894.51,451.6c-33.76-39.78-66.47-76-117.37-115.43C759,321.29,724.6,314.79,681.33,325.3c-65.55,15.27-121.17,45-176.46,79.77q2.4,19.13,4.79,38.23,5.19,7.88,12,7.75l231.87.34a28.08,28.08,0,0,0,15,3.74c12.28-.68,23.83-1.56,35.52-2.77-11.9-.21-19,.05-32.13-.28s-27.36-10.59-30.55-23.49c-.24-2.39-.34-5.09,2.25-7.24,11.7-8.69,21.35-11.61,29.85-11.85,20.07-.38,39.59,0,47,4.92,2.3,1.78,4.1,3.69,4.8,5.9l5.4,16.69c7.6,6.76,21.2,18.21,30.43,26.25-2.49-3.7-5.22-7.74-8.12-11.72Zm87.13-20.42c55.78,8.77,119.44,20.53,168.37,37.19-36.92-14.85-82.52-29.35-127.27-37.92,111.85-2.14,225.81-5.48,335.66-6.46-10.39-6.4-21.89-13.26-34.21-20.3-48.46-29.34-96.42-62-151.83-84.58a457.53,457.53,0,0,0-99.8-24.76c-94.21-12.58-196.41-13.79-290.63-13.56-46.54,2.67-88.92,8.54-120.57,18.37C579.44,323.64,492,366.74,414.65,407.27c-19.9,8.71-43,14.3-63.48,18.43-5.19,4.63.4,13.44,2,17.13-24.25,15.7-40,25.28-59.57,43.93-15.4,14.65-16.4,22.19-17.15,42.83-1,28.3,11.49,60.72,10.45,89,1-28.3.48-53,1.52-81.27.76-20.64,1.75-28.18,17.16-42.84,16.47-15.66,34.12-27.54,53.72-40.24l67.32-3-56.43-4,.55-.35-4.8-11.08c20.5-4.14,42.39-8.1,61.48-17.19,77.38-40.54,156-80.87,237.94-105.35,31.64-9.83,74-15.7,120.56-18.38,94.22-.22,188.43-1,282.65,11.54a457.13,457.13,0,0,1,99.8,24.75q7.44,3,14.73,6.1c-27-9.45-53.8-16.41-78.6-19.19q-220-15.58-302.61,1.24c44.58,33.92,79.45,70.06,113.38,112.71Q948.23,431.74,981.64,431.18Zm742.05,126.63c-85.66,5.23-168.45,6.05-254.31,4.39q-9.17,2.19-7.19,12.12l41.18,53.41c-87-3.06-178.13-11.26-245.57-20.21,170,35.65,354.09,41.21,476.7,19.6l0,.15c2.24,7.2,4.58,14.46,6.85,21.74h14.25a191.46,191.46,0,0,0-6.72-30c3.1-11.78,4.09-23.51-2.4-35.09q-1.61-22.32-3.19-44.65c-43.13-71.44-156.47-92.34-283.55-103.35,123.71,14.85,228,45.2,262,110.17A69.78,69.78,0,0,0,1723.69,557.81Z"/></svg>